<svg id="Capa_1" enable-background="new 0 0 512 512" height="512" viewBox="0 0 512 512" width="512" xmlns="http://www.w3.org/2000/svg"><g><path d="m318.37 408.538-16.314 17.036-46.056-73.416-46.056 73.416-16.314-17.036-4.292 15.298c-5.878 20.954-1.789 43.001 11.221 60.485 12.796 17.198 32.342 27.28 53.624 27.661 1.215.023 2.424.022 3.628.001 21.288-.382 40.833-10.464 53.629-27.662 13.009-17.484 17.099-39.531 11.221-60.485z"/><path d="m412.669 319.892-22.002-78.43-40.913 42.721-93.754-149.449-93.753 149.449-40.913-42.721-22.002 78.43c-21.924 78.153 16.796 156.681 83.673 190.214-2.283-2.497-4.462-5.119-6.513-7.875-18.6-24.998-24.445-56.525-16.037-86.497l18.489-65.905 26.045 27.196 51.011-81.32 51.013 81.318 26.045-27.196 18.489 65.905c8.408 29.972 2.563 61.499-16.037 86.497-2.051 2.757-4.23 5.378-6.513 7.875 66.876-33.531 105.596-112.059 83.672-190.212z"/><path d="m241 0h30v79.179h-30z"/><path d="m301 32.209h30v79.179h-30z"/><path d="m361 75.155h30v79.178h-30z"/><path d="m181 32.209h30v79.179h-30z"/><path d="m121 75.155h30v79.178h-30z"/></g></svg>