<?xml version="1.0" standalone="no"?>
<!DOCTYPE svg PUBLIC "-//W3C//DTD SVG 20010904//EN"
 "http://www.w3.org/TR/2001/REC-SVG-20010904/DTD/svg10.dtd">
<svg version="1.0" xmlns="http://www.w3.org/2000/svg"
 width="356.000000pt" height="400.000000pt" viewBox="0 0 356.000000 400.000000"
 preserveAspectRatio="xMidYMid meet">
<metadata>
Created by potrace 1.15, written by Peter Selinger 2001-2017
</metadata>
<g transform="translate(0.000000,400.000000) scale(0.100000,-0.100000)"
fill="#000000" stroke="none">
<path d="M2780 3900 c-239 -54 -673 -150 -965 -214 -410 -90 -544 -123 -592
-146 -66 -33 -93 -65 -112 -136 -7 -27 -12 -340 -15 -958 -2 -504 -5 -919 -8
-922 -3 -2 -66 5 -139 17 -100 15 -157 19 -224 15 -338 -22 -606 -237 -699
-560 -35 -119 -37 -317 -5 -422 69 -227 216 -409 401 -498 128 -61 200 -76
356 -76 151 0 243 19 354 76 93 46 149 87 220 162 69 72 108 132 147 227 64
153 63 127 65 1452 1 938 4 1205 13 1214 11 11 1451 338 1491 339 9 0 12 -158
12 -756 0 -715 -1 -755 -17 -750 -10 3 -70 13 -133 22 -206 30 -372 5 -535
-79 -112 -58 -244 -190 -302 -302 -74 -144 -88 -207 -88 -390 1 -149 3 -166
28 -240 74 -211 210 -367 402 -460 115 -56 186 -75 310 -82 225 -13 412 60
575 226 113 115 167 208 217 377 17 55 18 151 21 1417 2 903 -1 1371 -8 1396
-13 51 -48 101 -89 128 -30 21 -45 23 -140 22 -95 -1 -150 -11 -541 -99z m138
-2404 c135 -69 201 -199 167 -331 -27 -103 -92 -181 -195 -236 -69 -36 -167
-34 -238 5 -155 86 -218 268 -148 422 32 70 66 108 121 136 64 33 85 38 165
34 58 -2 87 -9 128 -30z m-2010 -435 c65 -33 128 -96 159 -159 84 -172 -38
-390 -243 -432 -140 -29 -297 72 -335 215 -18 64 -6 172 24 231 31 62 112 137
170 158 60 22 169 16 225 -13z"/>
</g>
</svg>
