<?xml version="1.0" standalone="no"?>
<!DOCTYPE svg PUBLIC "-//W3C//DTD SVG 20010904//EN"
 "http://www.w3.org/TR/2001/REC-SVG-20010904/DTD/svg10.dtd">
<svg version="1.0" xmlns="http://www.w3.org/2000/svg"
 width="1715.000000pt" height="675.000000pt" viewBox="0 0 1715.000000 675.000000"
 preserveAspectRatio="xMidYMid meet">
<metadata>
Created by potrace 1.15, written by Peter Selinger 2001-2017
</metadata>
<g transform="translate(0.000000,675.000000) scale(0.100000,-0.100000)"
fill="#000000" stroke="none">
<path d="M15935 6729 c-93 -10 -241 -23 -328 -28 -197 -13 -257 -21 -257 -34
0 -5 11 -24 24 -41 12 -17 33 -51 45 -76 11 -25 43 -79 70 -120 28 -41 50 -81
50 -89 1 -8 7 -22 14 -30 8 -9 35 -51 60 -94 55 -91 58 -119 23 -209 -38 -100
-93 -249 -106 -293 -7 -22 -23 -62 -35 -90 -44 -96 -85 -197 -85 -207 0 -11
-26 -71 -81 -183 -21 -45 -39 -87 -40 -95 0 -8 -22 -58 -48 -110 l-49 -95 -26
86 c-14 47 -26 94 -26 105 0 10 -27 102 -60 203 -33 101 -60 191 -60 200 0 9
-21 75 -46 146 -66 190 -71 204 -88 274 -19 75 -18 77 72 281 72 163 80 202
52 248 -32 52 -42 44 -75 -58 -26 -84 -74 -207 -113 -290 -53 -114 -50 -146
31 -367 37 -100 67 -189 67 -198 0 -15 91 -304 111 -353 5 -13 9 -32 9 -43 0
-11 22 -95 50 -186 l50 -165 -39 -71 c-21 -39 -43 -73 -48 -74 -9 -3 -33 74
-33 107 0 19 -60 232 -109 390 -12 36 -21 74 -21 84 0 24 -102 357 -182 591
-33 99 -63 194 -65 210 -3 22 13 68 61 172 36 78 66 148 66 156 0 8 21 65 46
126 26 61 44 114 41 118 -4 3 -64 -2 -135 -11 -71 -9 -153 -16 -183 -16 -30 0
-142 -11 -249 -25 -107 -14 -220 -25 -250 -25 -69 -1 -317 -33 -326 -43 -4 -4
8 -24 28 -45 19 -20 40 -44 46 -52 6 -8 33 -39 59 -69 26 -29 55 -63 63 -76
13 -19 92 -112 128 -150 6 -8 12 -17 12 -20 0 -6 90 -116 110 -135 18 -17 130
-348 130 -383 0 -15 51 -205 111 -409 10 -36 19 -77 19 -90 0 -12 16 -81 35
-153 19 -71 46 -179 60 -240 15 -60 35 -148 46 -195 11 -47 40 -156 65 -242
24 -86 44 -167 45 -180 0 -13 6 -39 13 -58 16 -44 0 -83 -85 -211 -32 -48 -59
-93 -59 -99 0 -6 -5 -16 -10 -23 -30 -34 -110 -160 -110 -172 0 -7 -3 -15 -7
-17 -5 -1 -21 -23 -38 -48 -16 -25 -32 -47 -35 -50 -15 -15 -50 -71 -50 -80 0
-10 -46 -76 -80 -117 -5 -6 -20 -31 -32 -55 -12 -24 -24 -45 -27 -48 -4 -3
-20 -25 -36 -50 -16 -25 -33 -47 -36 -50 -4 -3 -16 -23 -27 -45 -12 -22 -39
-65 -62 -95 -22 -30 -49 -73 -61 -95 -20 -36 -57 -93 -69 -105 -12 -12 -60
-87 -60 -94 0 -4 -26 -47 -58 -94 -33 -48 -73 -113 -91 -146 -18 -32 -37 -64
-42 -70 -5 -6 -22 -28 -38 -48 -15 -21 -47 -53 -70 -72 -23 -19 -56 -52 -74
-73 -18 -21 -49 -56 -70 -78 -21 -22 -50 -57 -63 -78 -25 -38 -37 -53 -86
-110 -15 -18 -28 -36 -28 -41 0 -4 -11 -21 -25 -38 -14 -16 -25 -34 -25 -40 0
-14 367 -6 755 16 330 19 395 25 395 36 0 5 -55 64 -122 132 -117 117 -228
248 -274 321 -21 33 -21 35 -3 58 10 13 19 30 19 37 0 6 20 41 45 77 25 35 55
84 68 107 27 52 119 192 130 196 4 2 7 10 7 17 0 8 26 54 58 102 129 193 192
291 192 297 0 3 27 45 60 93 33 48 60 93 60 99 0 7 6 19 13 26 17 18 107 156
107 164 0 4 29 51 65 105 36 53 65 104 65 113 0 8 5 18 10 21 6 3 10 -3 10
-14 0 -10 9 -40 19 -65 19 -43 19 -46 2 -68 -9 -13 -22 -35 -29 -50 -6 -15
-34 -62 -62 -103 -27 -42 -50 -80 -50 -84 0 -7 -82 -139 -99 -158 -6 -7 -16
-25 -23 -40 -7 -15 -33 -59 -58 -98 -25 -38 -63 -101 -84 -140 -21 -38 -41
-72 -45 -75 -9 -7 -31 -43 -71 -114 -18 -33 -52 -88 -76 -123 -24 -36 -44 -69
-44 -74 0 -6 -20 -40 -44 -77 -43 -66 -102 -168 -132 -228 -16 -30 -15 -32 20
-82 20 -29 36 -55 36 -60 0 -9 90 -114 107 -125 7 -4 13 -12 13 -17 0 -5 51
-59 113 -119 61 -61 117 -115 122 -121 6 -6 31 -33 57 -59 l47 -48 -77 -6
c-93 -7 -433 -23 -860 -39 -172 -6 -315 -15 -318 -20 -3 -4 1 -15 9 -23 8 -8
25 -31 37 -50 l22 -36 62 5 c33 3 230 13 436 21 660 27 869 38 882 46 9 6 2
18 -25 44 -20 20 -37 38 -37 40 0 2 -84 88 -188 192 -199 200 -262 270 -302
337 -14 23 -35 55 -46 71 l-22 29 34 53 c19 30 34 57 34 61 0 5 20 38 44 75
25 36 60 94 79 129 19 35 55 95 81 133 25 38 46 73 46 78 0 5 25 47 55 93 30
46 59 94 64 106 5 13 34 60 65 106 31 46 56 87 56 90 0 8 83 140 100 160 6 7
17 27 25 46 17 41 93 156 103 156 8 0 52 -104 52 -124 0 -7 27 -73 60 -146 33
-73 60 -137 60 -142 0 -20 276 -582 332 -676 21 -34 38 -67 38 -72 0 -6 5 -19
12 -29 9 -15 8 -27 -7 -57 -10 -22 -21 -41 -24 -44 -15 -11 -86 -126 -96 -155
-9 -26 -42 -92 -99 -200 l-16 -30 49 -3 c27 -2 176 9 332 23 155 14 312 25
348 25 36 0 174 11 306 25 132 14 267 25 301 25 93 0 154 11 154 26 0 8 -5 14
-11 14 -7 0 -21 9 -33 21 -12 11 -59 47 -106 79 -47 33 -112 79 -145 102 -32
24 -67 48 -76 53 -26 16 -142 102 -169 125 -14 12 -29 25 -35 29 -14 8 -85
115 -85 127 0 5 -27 54 -60 109 -33 55 -60 105 -60 112 0 7 -24 52 -53 100
-29 48 -59 104 -67 123 -7 19 -27 60 -43 90 -17 30 -42 79 -57 110 -15 30 -57
116 -93 190 -37 74 -67 139 -67 145 0 5 -18 45 -39 90 -55 113 -81 172 -81
184 0 5 -13 38 -29 73 -62 136 -79 174 -91 213 -7 22 -39 108 -71 190 -33 83
-59 163 -59 178 0 31 15 66 78 175 23 41 42 80 42 87 0 7 15 40 33 72 57 104
217 442 217 459 0 6 14 39 31 75 58 118 99 211 99 223 0 7 11 36 25 64 14 29
25 54 25 57 0 2 13 34 30 69 16 36 32 78 36 93 3 15 12 42 19 58 38 85 115
287 115 300 0 8 24 48 53 88 30 39 62 87 72 106 9 19 21 39 26 45 28 33 89
121 89 128 0 4 29 49 65 98 36 49 65 94 65 98 0 5 13 27 28 48 15 21 31 45 36
52 11 18 -178 14 -389 -9z"/>
<path d="M16342 6483 c-21 -27 -47 -61 -58 -78 -10 -16 -42 -60 -71 -96 -29
-36 -53 -69 -53 -73 0 -4 -26 -40 -58 -79 -32 -40 -69 -88 -82 -107 -13 -19
-27 -37 -30 -40 -11 -8 -69 -163 -76 -200 -4 -19 -17 -57 -29 -85 -43 -94 -97
-230 -107 -265 -6 -19 -34 -86 -64 -149 -30 -62 -54 -118 -54 -124 0 -5 -27
-65 -60 -133 -33 -68 -60 -127 -60 -131 1 -4 -28 -66 -64 -138 -36 -71 -74
-150 -85 -175 -11 -25 -38 -77 -58 -116 -66 -122 -67 -129 -53 -193 8 -31 26
-83 40 -116 15 -33 42 -98 60 -145 18 -47 61 -148 96 -225 36 -77 64 -145 64
-151 0 -6 27 -64 60 -130 33 -65 60 -123 60 -129 0 -5 18 -44 40 -85 22 -41
49 -95 61 -120 51 -111 47 -103 120 -230 14 -25 32 -61 39 -80 8 -19 32 -64
53 -100 22 -36 46 -80 54 -98 7 -18 31 -61 52 -95 21 -35 60 -101 86 -147 43
-75 97 -138 205 -237 19 -17 50 -47 69 -65 36 -34 208 -190 346 -313 43 -38
90 -81 104 -95 l26 -24 -40 -7 c-62 -10 -961 -86 -1125 -94 -265 -14 -450 -29
-450 -36 0 -5 21 -31 48 -58 l47 -48 150 13 c83 7 233 17 335 23 173 9 337 22
940 72 307 26 330 29 330 44 0 7 -21 32 -47 55 -27 24 -100 92 -163 150 -63
59 -146 136 -185 170 -102 91 -305 283 -397 373 -50 50 -87 95 -99 125 -11 26
-30 60 -43 77 -32 44 -86 134 -86 145 0 5 -25 51 -56 102 -31 50 -60 103 -65
116 -5 13 -34 65 -64 116 -30 50 -55 99 -55 107 0 8 -4 19 -9 24 -8 9 -78 139
-106 195 -6 14 -39 81 -74 150 -34 69 -61 128 -61 133 0 8 -75 171 -110 240
-11 22 -20 45 -20 53 0 14 -30 90 -75 189 -22 49 -30 72 -58 169 -12 39 -13
53 -2 75 16 35 49 101 95 191 83 165 170 345 170 352 0 5 26 63 58 130 32 68
62 135 65 150 4 15 25 66 47 113 43 92 65 147 98 240 11 33 39 105 61 160 22
55 45 119 51 142 6 24 31 67 60 101 28 33 50 63 50 67 0 4 26 39 58 78 32 40
65 83 74 97 8 14 24 35 34 47 43 50 55 65 80 105 15 23 33 49 41 56 7 7 13 20
13 27 0 18 -33 84 -42 85 -3 0 -24 -21 -46 -47z"/>
<path d="M12885 6374 c-344 -44 -1351 -151 -1790 -190 -104 -9 -197 -20 -205
-24 -11 -7 -8 -14 18 -38 18 -17 32 -33 32 -37 0 -4 28 -36 62 -72 35 -35 67
-71 71 -80 5 -8 17 -23 26 -32 49 -52 91 -101 91 -107 0 -6 74 -97 107 -132 7
-7 13 -19 13 -27 0 -7 4 -15 9 -17 30 -11 38 -648 11 -848 -6 -41 -15 -118
-20 -170 -10 -100 -41 -240 -90 -400 -16 -52 -37 -121 -46 -153 -10 -33 -22
-60 -28 -61 -70 -16 -197 -64 -217 -83 -14 -13 -29 -23 -35 -23 -13 0 -171
-155 -198 -193 -11 -18 -40 -57 -63 -87 -50 -66 -108 -170 -95 -170 9 0 94 66
145 111 10 9 35 25 55 35 20 11 51 29 67 40 17 12 41 24 55 27 14 3 50 13 80
21 30 9 62 13 72 10 16 -5 16 -7 1 -47 -35 -86 -37 -88 -125 -117 -94 -31
-212 -85 -229 -106 -6 -8 -16 -14 -21 -14 -6 0 -23 -9 -39 -21 -25 -17 -29
-27 -29 -65 0 -24 2 -44 4 -44 8 0 80 42 97 57 45 38 266 124 256 100 -3 -7
-26 -64 -52 -127 -26 -63 -53 -135 -60 -160 -7 -25 -36 -110 -65 -190 -28 -80
-55 -165 -60 -190 -4 -25 -21 -94 -38 -155 -42 -151 -79 -351 -86 -469 l-7
-98 -59 -73 c-33 -39 -60 -75 -60 -79 0 -7 -39 -66 -51 -76 -12 -12 -69 -111
-69 -123 0 -6 -7 -20 -14 -29 -12 -17 -14 -17 -28 0 -20 24 -82 122 -95 152
-6 14 -22 50 -37 80 -57 124 -88 209 -107 299 -11 53 -25 119 -31 146 -5 28
-13 105 -17 173 -6 120 -7 124 -33 140 -15 9 -30 13 -34 10 -3 -4 -7 -60 -8
-125 -1 -177 33 -371 94 -523 46 -118 115 -263 133 -282 27 -30 57 -78 57 -93
0 -8 5 -15 10 -15 8 0 16 -218 8 -221 -16 -4 -722 -28 -838 -28 -157 -1 -1222
-41 -1229 -47 -2 -2 14 -29 35 -60 l39 -57 155 7 c85 4 301 11 480 16 179 5
525 19 770 30 245 11 496 20 559 20 l113 0 -7 123 c-4 68 -4 144 0 170 l7 47
217 0 c440 0 2279 45 2290 55 2 3 -31 40 -75 83 -96 95 -195 201 -209 224 -5
8 -31 44 -57 79 -36 51 -52 85 -73 164 -37 136 -55 266 -55 413 0 120 -9 151
-30 98 -5 -14 -33 -63 -63 -109 -30 -47 -64 -104 -75 -128 -21 -44 -71 -134
-98 -176 -8 -12 -14 -27 -14 -33 0 -11 -52 -88 -114 -167 -74 -93 -159 -143
-310 -180 -88 -22 -270 -41 -407 -43 l-37 0 -12 102 c-23 186 0 392 75 673 45
166 67 236 114 360 21 55 46 125 56 155 10 30 30 82 45 115 14 33 33 76 40 95
22 58 26 60 119 60 106 1 340 15 346 22 3 2 -1 24 -8 49 -12 40 -16 44 -43 43
-401 -16 -444 -20 -444 -44 0 -6 -9 -30 -20 -52 -11 -23 -20 -47 -20 -52 0 -6
-28 -85 -64 -176 -35 -91 -72 -187 -81 -215 -83 -242 -104 -307 -114 -355 -6
-30 -22 -108 -36 -174 -44 -206 -53 -388 -29 -563 l6 -43 -56 0 -56 0 0 108
c0 59 5 145 10 192 6 47 15 128 20 180 15 151 121 559 193 750 14 36 32 85 40
110 37 113 58 172 96 265 22 55 45 119 52 142 15 52 8 51 319 55 l235 3 12
-85 c21 -149 76 -440 83 -440 8 0 90 232 90 255 0 8 27 96 60 197 33 100 60
189 60 198 0 9 27 105 60 215 33 109 63 217 66 239 4 23 25 115 49 206 57 220
55 210 41 210 -11 0 -66 -82 -66 -99 0 -12 -18 -45 -72 -132 -27 -42 -48 -79
-48 -83 0 -4 -29 -50 -65 -101 -36 -52 -65 -98 -65 -102 0 -4 -10 -20 -23 -35
-12 -15 -37 -47 -55 -72 -38 -52 -41 -52 -236 -62 -126 -6 -139 -5 -133 9 16
42 58 196 91 332 69 285 92 487 113 962 l6 152 46 6 c25 4 89 16 141 27 53 11
135 20 185 20 78 1 97 -3 140 -25 46 -24 105 -76 105 -93 0 -4 15 -25 33 -48
43 -54 87 -120 87 -130 0 -5 12 -28 28 -52 27 -43 58 -60 48 -26 -3 9 -10 36
-16 60 -6 23 -26 80 -45 125 -19 45 -35 87 -35 94 0 15 -86 123 -126 156 -29
24 -74 45 -154 69 -78 23 -323 -1 -475 -47 l-40 -12 3 -114 c4 -147 -12 -415
-38 -649 -25 -214 -82 -493 -158 -772 l-15 -58 -55 0 c-48 0 -53 2 -47 18 21
50 85 249 94 295 71 343 86 443 102 667 13 187 6 483 -16 690 -7 74 -13 136
-11 137 1 1 31 7 67 12 35 6 96 17 134 26 40 10 135 19 220 22 142 5 154 4
227 -21 43 -14 96 -39 119 -55 67 -49 164 -203 193 -307 7 -27 25 -85 39 -129
13 -44 34 -138 47 -210 30 -177 30 -178 36 -173 9 10 94 324 94 351 0 16 11
72 24 125 36 143 106 496 106 534 0 19 14 121 30 226 17 106 30 195 30 197 0
6 15 8 -205 -21z"/>
<path d="M13180 6129 c0 -18 -29 -150 -65 -294 -36 -145 -65 -271 -65 -280 0
-19 -3 -31 -75 -270 -25 -83 -45 -160 -45 -171 0 -11 -16 -67 -35 -124 -38
-113 -41 -131 -24 -179 14 -39 21 -39 35 2 6 17 36 109 67 202 86 260 158 512
217 765 69 298 67 280 39 330 -31 55 -49 63 -49 19z"/>
<path d="M9340 6068 c-388 -26 -719 -51 -749 -57 l-34 -6 134 -138 c161 -165
253 -264 258 -280 2 -6 20 -28 39 -49 57 -62 60 -68 77 -208 14 -106 16 -181
12 -360 -6 -254 -16 -329 -83 -605 -66 -270 -117 -432 -226 -710 -32 -82 -58
-156 -58 -163 0 -7 -9 -32 -19 -55 -34 -76 -103 -251 -116 -297 -7 -25 -36
-105 -64 -178 -28 -74 -51 -141 -51 -151 0 -9 -14 -57 -30 -107 -41 -118 -89
-304 -99 -379 -42 -314 -54 -369 -88 -416 -18 -26 -33 -50 -33 -55 0 -5 -18
-38 -40 -74 -55 -89 -85 -153 -116 -250 -4 -13 6 -15 68 -13 408 17 1104 35
1496 40 422 5 482 8 482 21 0 9 -7 23 -16 33 -15 16 -78 121 -129 214 -28 51
-89 249 -112 363 -15 71 -18 138 -18 360 0 149 -2 272 -5 272 -7 -1 -121 -232
-120 -244 0 -5 -28 -66 -62 -135 -34 -69 -66 -137 -72 -151 -6 -14 -34 -65
-63 -113 -29 -48 -53 -91 -53 -95 0 -21 -140 -164 -182 -186 -13 -7 -34 -19
-48 -26 -52 -29 -155 -49 -250 -50 -135 0 -140 2 -140 59 0 87 31 316 65 476
18 88 36 177 40 199 3 21 31 115 61 210 30 94 61 194 70 221 9 28 38 105 65
172 27 67 49 128 49 136 0 7 27 80 60 162 33 82 60 155 60 162 0 7 23 70 51
140 28 71 58 151 66 178 8 28 37 120 64 205 27 85 53 178 59 205 89 435 103
550 99 835 -3 192 -1 224 18 300 33 130 49 310 33 352 -38 93 -70 105 -70 26
0 -48 -11 -127 -42 -318 -6 -36 -11 -211 -12 -390 -2 -350 -7 -397 -72 -675
-15 -60 -31 -132 -36 -160 -5 -27 -34 -124 -65 -215 -30 -91 -58 -183 -63
-205 -5 -22 -36 -107 -69 -189 -34 -83 -61 -156 -61 -163 0 -7 -27 -80 -60
-163 -33 -83 -60 -156 -60 -163 0 -7 -19 -62 -43 -122 -23 -61 -52 -141 -64
-180 -57 -182 -104 -348 -122 -425 -37 -161 -81 -480 -81 -589 l0 -73 -31 6
c-17 3 -38 6 -47 6 -35 0 12 372 82 644 20 76 36 146 36 156 0 9 23 84 51 166
28 82 57 172 64 199 7 28 22 73 33 100 21 52 84 221 98 266 5 15 34 91 65 170
31 79 68 180 83 224 15 44 43 125 61 180 85 249 151 495 165 610 5 44 16 125
25 180 23 145 30 416 16 582 -12 136 -12 143 13 254 29 131 42 237 51 397 l6
112 -38 -2 c-21 0 -94 -5 -163 -10z"/>
<path d="M8020 5984 c-401 -29 -1137 -72 -1365 -79 -93 -3 -239 -10 -323 -15
-143 -8 -186 -16 -154 -27 8 -3 26 -18 42 -33 16 -16 49 -42 74 -59 25 -17 49
-37 53 -44 4 -7 26 -24 48 -39 22 -15 86 -71 142 -125 56 -54 119 -114 140
-134 29 -28 41 -49 50 -90 77 -347 93 -466 93 -677 0 -184 -20 -334 -66 -495
-19 -65 -34 -127 -34 -137 0 -30 -28 -50 -71 -50 -22 0 -61 -11 -89 -25 -27
-14 -56 -25 -63 -25 -8 0 -20 -7 -28 -16 -7 -8 -29 -24 -48 -34 -47 -25 -176
-152 -226 -225 -22 -31 -45 -62 -51 -69 -33 -35 -47 -106 -21 -106 7 0 31 18
52 41 87 90 241 175 352 194 68 11 75 1 51 -72 -20 -60 -22 -63 -54 -63 -36 0
-164 -43 -202 -68 -13 -9 -36 -23 -52 -31 -15 -9 -51 -37 -79 -63 -50 -45 -51
-48 -45 -87 8 -47 26 -53 50 -16 9 14 22 25 28 25 7 0 23 11 36 25 13 14 28
25 34 25 5 0 19 9 30 19 23 21 166 75 175 66 3 -3 0 -14 -6 -24 -6 -10 -17
-38 -23 -61 -6 -23 -22 -67 -36 -96 -13 -30 -35 -79 -50 -110 -14 -32 -28 -71
-31 -88 -4 -17 -27 -83 -53 -146 -25 -63 -53 -140 -62 -170 -9 -30 -26 -86
-38 -125 -12 -38 -38 -119 -57 -180 -19 -60 -38 -132 -42 -160 -24 -142 -65
-291 -86 -315 -12 -14 -31 -38 -41 -55 -10 -16 -41 -59 -69 -95 -27 -36 -54
-73 -60 -82 -5 -9 -33 -50 -61 -90 -27 -40 -60 -92 -71 -115 -12 -23 -28 -51
-35 -62 -7 -11 -9 -23 -5 -27 3 -4 156 3 339 14 183 12 416 23 517 26 101 3
186 8 188 10 7 7 -40 104 -97 198 -27 46 -50 88 -50 93 0 6 -23 54 -50 108
-28 54 -50 108 -50 121 0 12 21 103 46 202 25 98 50 199 54 224 5 25 27 97 50
160 23 63 48 138 56 165 9 28 38 106 65 175 28 69 64 163 81 209 16 47 50 127
74 179 24 51 44 100 44 107 0 12 77 187 99 225 7 13 42 15 231 13 122 -1 224
-4 227 -7 11 -11 83 -343 93 -425 5 -46 11 -86 14 -88 11 -11 29 13 57 76 17
36 57 121 90 189 32 67 59 127 59 133 0 5 10 31 21 57 12 26 35 76 50 112 16
36 34 73 39 82 5 10 14 34 19 55 5 21 26 83 46 138 50 135 69 207 98 360 16
87 21 131 14 134 -6 2 -13 -1 -15 -8 -4 -11 -83 -112 -109 -139 -7 -7 -13 -17
-13 -22 0 -12 -209 -238 -310 -336 l-35 -34 -142 0 c-79 0 -143 3 -143 6 0 4
15 52 34 108 48 139 73 259 85 406 23 265 6 555 -45 746 -5 19 1 23 63 35 88
17 275 17 383 -1 102 -16 198 -60 260 -118 25 -23 48 -42 53 -42 4 0 23 -22
43 -50 20 -27 42 -50 50 -50 20 0 18 8 -16 65 -16 28 -38 66 -49 85 -11 19
-36 49 -56 65 -20 17 -47 39 -59 50 -36 33 -116 71 -204 99 -73 23 -100 26
-227 26 -116 0 -341 -16 -353 -25 -1 -1 9 -55 22 -121 43 -212 61 -391 60
-609 -1 -145 -5 -222 -17 -280 -10 -44 -17 -93 -17 -110 0 -16 -19 -86 -43
-155 l-42 -125 -45 0 c-55 0 -55 -6 -6 178 51 193 66 304 66 502 0 179 -20
358 -58 510 -11 44 -23 98 -26 120 -3 22 -23 93 -45 158 l-39 117 123 0 c68 0
168 5 223 10 124 13 327 -7 388 -38 22 -10 50 -22 64 -25 14 -4 35 -15 47 -27
12 -11 26 -20 30 -20 25 0 185 -175 220 -241 13 -23 27 -47 32 -53 37 -46 117
-226 152 -343 16 -53 37 -41 44 25 3 31 10 89 16 127 17 108 23 724 9 863 -6
64 -14 127 -17 140 -6 27 19 27 -413 -4z"/>
<path d="M4745 5834 c-1112 -46 -1498 -63 -1502 -68 -6 -6 48 -55 60 -56 8 0
89 -59 191 -137 28 -21 62 -46 78 -55 15 -10 35 -24 45 -33 42 -37 82 -65 92
-65 6 0 18 -11 27 -25 9 -14 22 -25 30 -25 7 0 19 -9 28 -21 14 -21 54 -141
75 -229 7 -25 18 -67 26 -95 32 -106 74 -315 86 -424 16 -149 6 -410 -20 -561
-12 -63 -21 -116 -21 -117 0 -2 -8 -3 -18 -3 -36 0 -168 -46 -224 -78 -55 -32
-208 -182 -208 -204 0 -6 -15 -34 -33 -62 -57 -87 -116 -230 -101 -245 2 -2
38 30 81 71 43 41 95 85 116 97 20 13 37 27 37 32 0 5 6 9 14 9 8 0 30 9 49
20 48 28 156 55 204 51 9 -1 11 -15 7 -48 -10 -88 -9 -87 -71 -107 -79 -25
-172 -66 -209 -93 -17 -13 -35 -23 -40 -23 -5 0 -33 -21 -62 -48 -52 -45 -54
-49 -47 -85 8 -40 23 -57 35 -37 4 6 16 17 28 23 11 7 45 29 75 50 76 52 143
86 201 101 l48 14 -6 -27 c-3 -14 -21 -91 -41 -171 -19 -80 -35 -156 -35 -170
0 -14 -22 -119 -49 -235 -26 -115 -56 -255 -65 -310 -9 -55 -24 -140 -33 -190
-8 -49 -32 -188 -53 -308 -36 -210 -39 -220 -76 -275 -21 -31 -41 -59 -44 -62
-11 -11 -50 -70 -50 -75 0 -4 -29 -49 -65 -101 -36 -52 -65 -99 -65 -105 0 -5
-16 -35 -35 -65 -45 -70 -45 -78 3 -70 20 3 75 11 122 16 47 6 166 22 265 36
99 13 191 24 205 24 14 0 111 11 215 25 204 27 281 35 1195 135 107 12 201 23
208 26 9 2 0 28 -28 85 -59 117 -125 311 -157 459 -32 149 -22 436 23 678 7
34 -12 46 -23 15 -3 -10 -35 -62 -70 -115 -34 -54 -63 -102 -63 -106 0 -5 -23
-49 -51 -98 -29 -49 -58 -103 -65 -121 -8 -18 -39 -73 -69 -123 -30 -50 -55
-93 -55 -96 0 -9 -101 -128 -116 -137 -8 -4 -14 -14 -14 -21 0 -12 -83 -76
-99 -76 -4 0 -16 -9 -26 -20 -10 -11 -24 -20 -31 -20 -8 0 -37 -11 -66 -24
-73 -33 -185 -63 -302 -81 -55 -8 -103 -15 -108 -15 -5 0 -7 15 -4 33 41 247
62 366 86 486 17 80 30 156 30 170 0 14 29 145 65 291 36 146 70 288 76 315 6
28 26 100 44 160 18 61 39 137 48 170 41 158 32 142 85 148 26 3 134 11 240
18 214 14 197 6 170 78 l-9 24 -202 -7 c-111 -3 -223 -9 -248 -12 l-46 -6 -32
-111 c-18 -62 -37 -134 -42 -162 -5 -27 -18 -81 -29 -120 -52 -179 -165 -655
-199 -840 -34 -179 -90 -515 -97 -578 -7 -63 -15 -70 -76 -80 -46 -7 -46 -10
-18 158 11 66 20 137 20 157 0 33 19 128 110 563 11 55 46 201 77 325 30 124
59 248 63 275 5 28 29 127 55 220 71 259 75 274 75 300 0 21 5 25 28 25 15 0
126 7 247 15 121 8 243 15 271 15 l52 0 17 -70 c9 -39 21 -96 25 -128 4 -31
18 -119 31 -194 25 -147 40 -170 59 -95 7 23 27 89 47 147 117 352 195 623
237 830 30 147 66 354 66 381 0 33 -19 20 -48 -32 -30 -56 -102 -171 -113
-179 -3 -3 -14 -21 -24 -40 -10 -19 -30 -51 -44 -70 -14 -19 -29 -39 -33 -45
-4 -5 -19 -24 -33 -41 -14 -18 -25 -35 -25 -39 0 -3 -20 -33 -45 -65 l-44 -58
-191 -7 c-105 -4 -193 -6 -195 -4 -2 2 7 56 20 119 69 343 56 698 -37 990 -11
36 -24 82 -28 102 l-7 37 71 5 c297 23 495 14 568 -25 24 -13 57 -33 73 -45
17 -12 38 -24 48 -27 9 -4 17 -11 17 -16 0 -6 21 -25 47 -42 26 -18 78 -63
117 -101 68 -66 86 -78 86 -59 0 15 -41 87 -67 117 -52 63 -119 138 -128 146
-79 64 -106 82 -162 109 -109 52 -223 72 -413 72 -110 0 -198 -5 -265 -17 -54
-9 -101 -19 -103 -21 -5 -5 14 -90 38 -170 69 -230 101 -416 107 -620 5 -141
2 -195 -16 -315 -12 -80 -27 -167 -34 -195 l-13 -50 -60 -7 c-32 -3 -60 -5
-61 -4 -1 1 7 69 17 151 14 105 20 210 20 350 0 255 -20 403 -86 630 -14 50
-29 108 -33 130 -7 35 -47 155 -80 239 -6 16 -10 30 -9 31 11 8 252 27 393 32
167 5 226 0 395 -36 56 -12 172 -64 189 -85 8 -9 18 -16 23 -16 23 0 202 -184
231 -237 7 -12 28 -46 48 -75 44 -66 57 -89 111 -205 24 -51 46 -93 49 -93 8
0 25 118 39 265 19 203 10 647 -16 803 l-5 32 -192 -1 c-106 -1 -453 -12 -772
-25z"/>
<path d="M8630 5813 c0 -5 -11 -127 -25 -273 -32 -335 -58 -527 -96 -710 -44
-211 -45 -222 -20 -244 31 -28 47 -14 60 56 7 34 25 124 41 198 48 227 80 419
90 550 6 69 16 178 23 243 l14 118 -32 35 c-29 31 -55 44 -55 27z"/>
<path d="M1165 5720 c-66 -11 -149 -28 -185 -40 -36 -11 -70 -20 -76 -20 -20
0 -228 -80 -299 -115 -39 -19 -76 -35 -83 -35 -6 0 -12 -4 -12 -8 0 -4 -29
-23 -65 -41 -36 -19 -65 -38 -65 -42 0 -5 -5 -9 -11 -9 -15 0 -111 -63 -128
-84 -8 -9 -18 -16 -23 -16 -7 0 -109 -77 -196 -150 -34 -29 -24 -51 33 -73 73
-28 200 -90 203 -98 2 -4 18 -13 37 -19 30 -10 34 -16 43 -68 39 -221 141
-1028 161 -1267 6 -71 17 -209 25 -305 8 -96 13 -176 11 -178 -6 -7 -189 -39
-258 -47 -58 -6 -68 -10 -71 -28 -9 -43 -56 -402 -56 -424 0 -13 4 -23 8 -23
15 0 76 33 96 52 11 10 26 18 33 18 7 0 31 11 53 25 22 14 44 25 50 25 5 0 35
11 66 25 107 47 124 36 124 -81 l0 -61 -95 -48 c-53 -27 -103 -57 -112 -67 -9
-10 -20 -18 -25 -18 -6 0 -27 -12 -49 -27 -30 -22 -39 -35 -39 -59 0 -16 6
-39 14 -50 17 -21 13 -23 120 49 31 20 60 37 65 37 5 0 16 7 25 15 25 26 106
57 111 42 16 -50 51 -1207 38 -1259 -3 -13 -9 -27 -13 -33 -12 -15 -81 -144
-108 -200 -14 -27 -49 -93 -78 -146 -60 -108 -67 -134 -32 -126 13 3 57 10 98
16 145 19 427 60 595 86 94 14 188 25 210 25 66 0 71 10 41 69 -14 29 -46 83
-71 122 -25 38 -45 74 -45 80 0 6 -27 52 -60 102 l-60 92 0 842 0 841 43 15
c23 8 107 36 187 62 154 49 239 81 332 123 32 14 60 23 63 20 5 -5 19 -83 28
-153 3 -30 -82 -82 -278 -170 -58 -27 -155 -60 -232 -81 -10 -3 -13 -75 -13
-321 0 -175 -5 -524 -11 -775 l-11 -458 22 -52 c12 -29 46 -89 75 -134 29 -44
60 -96 68 -115 8 -20 27 -55 43 -80 15 -24 47 -81 70 -126 l42 -81 -34 -7
c-19 -3 -76 -10 -127 -14 -89 -8 -215 -25 -587 -77 -96 -13 -197 -24 -223 -24
-34 0 -49 -4 -54 -16 -7 -20 36 -114 53 -114 7 0 72 9 146 20 73 11 149 20
168 20 34 0 158 15 540 66 102 13 206 24 233 24 26 0 47 3 47 6 0 3 -22 43
-50 89 -27 46 -50 89 -50 97 0 7 -27 58 -60 112 -33 54 -60 102 -60 107 0 5
-25 50 -56 101 -31 51 -63 108 -71 127 -8 18 -25 51 -38 71 l-24 38 9 254 c23
624 30 844 30 1006 0 137 3 172 13 172 17 0 230 98 278 128 20 12 39 22 43 22
4 0 35 20 70 44 l62 44 27 -97 c15 -53 32 -122 37 -151 49 -270 63 -357 85
-505 26 -180 45 -377 70 -745 18 -256 49 -598 70 -775 7 -66 19 -163 25 -215
20 -173 33 -240 44 -240 12 0 18 8 66 95 18 33 40 70 49 81 9 12 23 32 31 44
8 12 23 31 33 42 9 12 17 25 17 31 0 5 26 42 58 80 31 39 64 81 73 94 28 42
273 293 285 293 26 0 37 28 24 60 -7 16 -16 30 -19 30 -25 0 -301 623 -301
678 0 9 -23 87 -50 172 -28 85 -55 182 -62 215 -6 33 -40 161 -75 284 -35 123
-63 233 -63 244 0 18 -48 202 -101 388 -10 36 -19 78 -19 92 0 14 -11 68 -25
119 -14 51 -25 95 -25 98 0 3 17 14 38 25 84 43 231 133 292 179 118 89 278
247 328 325 9 14 38 54 63 87 48 63 134 231 163 316 41 122 43 252 6 373 -27
90 -108 252 -159 320 -25 33 -57 76 -70 95 -24 36 -81 98 -141 153 -19 18 -60
56 -91 85 -31 28 -59 52 -62 52 -3 0 -34 20 -69 44 -35 24 -79 51 -98 59 -19
9 -46 22 -60 30 -40 23 -140 67 -151 67 -5 0 -30 9 -55 20 -24 12 -63 25 -87
30 -23 5 -73 18 -112 28 -184 51 -423 63 -620 32z m400 -290 c85 -21 287 -108
310 -134 5 -7 29 -24 52 -39 23 -15 57 -41 75 -59 18 -18 47 -44 63 -58 17
-14 42 -41 56 -60 15 -19 35 -45 45 -57 11 -12 27 -31 38 -44 29 -35 133 -248
152 -314 14 -45 18 -94 18 -200 0 -129 -3 -145 -28 -207 -39 -98 -101 -203
-168 -285 -32 -40 -58 -75 -58 -77 0 -7 -161 -161 -172 -165 -6 -2 -39 -26
-72 -52 -33 -27 -64 -49 -70 -49 -5 0 -23 -10 -40 -23 -39 -29 -312 -167 -331
-167 -7 0 -35 -11 -62 -25 -32 -16 -49 -20 -50 -12 -1 7 -7 152 -13 324 -12
356 -23 515 -51 728 -11 83 -24 191 -29 240 -5 50 -25 154 -43 232 l-33 142
50 22 c33 14 94 26 176 34 154 16 284 5 385 -31 84 -31 212 -94 227 -111 6 -7
15 -13 21 -13 5 0 25 -11 43 -25 18 -14 37 -25 43 -25 5 0 14 -6 18 -14 4 -7
28 -26 52 -42 24 -16 50 -33 57 -39 26 -19 26 6 0 45 -31 48 -186 200 -202
200 -7 0 -22 11 -35 25 -13 13 -29 25 -36 25 -6 0 -27 9 -45 20 -19 11 -74 34
-123 52 l-90 33 -220 0 c-217 -1 -259 -5 -345 -40 -19 -7 -48 -16 -64 -20 -33
-7 -35 13 19 -240 20 -93 40 -213 45 -265 4 -52 18 -167 29 -255 35 -275 79
-899 69 -994 -3 -31 -8 -36 -53 -52 -74 -26 -75 -25 -75 31 0 161 -51 748 -95
1085 -14 105 -30 231 -36 280 -6 50 -31 187 -55 305 -24 118 -44 218 -44 222
0 10 104 77 163 105 44 20 174 55 252 67 57 8 191 -3 280 -24z"/>
<path d="M5877 5483 c-8 -288 -30 -488 -73 -690 l-27 -121 23 -37 c17 -27 25
-33 30 -24 12 22 77 302 99 427 21 116 40 513 28 564 -6 24 -52 78 -67 78 -4
0 -10 -89 -13 -197z"/>
<path d="M2680 5337 c0 -8 10 -22 21 -33 12 -10 32 -35 45 -54 12 -19 35 -49
51 -66 35 -39 60 -72 76 -101 7 -13 36 -56 65 -98 28 -41 52 -78 52 -83 0 -5
14 -37 31 -73 77 -158 97 -260 80 -394 -20 -147 -106 -362 -192 -477 -22 -28
-39 -56 -39 -61 0 -4 -6 -14 -12 -22 -7 -7 -35 -39 -63 -72 -97 -115 -281
-289 -366 -348 -30 -20 -58 -43 -62 -51 -4 -8 -13 -14 -18 -14 -6 0 -25 -11
-43 -25 -18 -14 -38 -25 -44 -25 -24 0 -11 -93 48 -356 33 -147 60 -280 60
-296 0 -16 27 -135 61 -266 34 -130 65 -257 69 -282 5 -25 32 -110 60 -190 28
-80 56 -162 61 -183 8 -32 68 -176 132 -317 7 -14 35 -65 64 -113 29 -48 53
-94 53 -102 0 -7 3 -15 8 -17 4 -1 21 -23 37 -48 17 -25 36 -51 43 -59 7 -7
21 -30 32 -51 11 -21 25 -40 32 -43 15 -5 -16 -36 -78 -79 -70 -49 -272 -254
-323 -329 -17 -24 -46 -61 -65 -83 -18 -21 -40 -50 -47 -65 -8 -14 -42 -65
-76 -112 -35 -48 -63 -91 -63 -96 0 -5 -22 -41 -49 -79 -76 -110 -75 -107 -44
-143 36 -41 59 -40 78 5 8 20 35 66 59 103 24 36 51 82 61 101 10 19 21 37 24
40 13 11 101 130 101 138 0 4 18 27 41 52 22 25 57 65 77 90 48 59 303 310
315 310 6 0 28 17 51 38 22 21 52 45 64 54 l24 16 -44 55 c-23 30 -51 65 -60
78 -21 29 -45 61 -75 99 -13 15 -23 31 -23 35 0 4 -24 46 -53 93 -68 111 -183
344 -201 408 -8 27 -37 116 -65 197 -28 81 -51 155 -51 163 0 9 -20 82 -44
162 -64 216 -79 271 -86 327 -4 28 -23 122 -43 210 -43 191 -77 383 -77 437 0
31 4 40 24 48 13 4 48 28 77 52 30 24 72 56 94 72 69 51 264 253 320 331 11
16 25 33 30 39 55 60 177 276 200 355 8 25 26 87 40 136 32 111 44 300 25 397
-13 68 -70 224 -98 267 -85 131 -158 214 -324 369 -49 45 -58 50 -58 29z"/>
<path d="M12550 4568 c-7 -29 -32 -120 -55 -203 -23 -82 -48 -175 -55 -205
-16 -72 -77 -287 -107 -374 -12 -38 -23 -79 -23 -90 0 -12 -29 -110 -65 -219
-36 -109 -65 -204 -65 -212 0 -8 -11 -48 -25 -89 -14 -41 -25 -84 -25 -95 0
-22 37 -48 50 -34 11 10 100 282 100 303 0 8 25 92 55 185 30 94 60 193 66
220 7 28 33 122 59 210 26 88 53 185 60 215 7 30 32 131 56 224 l45 169 -22
24 c-13 12 -26 23 -30 23 -4 0 -13 -24 -19 -52z"/>
<path d="M5487 4483 c-4 -3 -7 -25 -7 -48 0 -24 -25 -141 -56 -261 -31 -121
-61 -241 -67 -269 -5 -27 -36 -134 -68 -236 -33 -102 -59 -191 -59 -199 0 -13
-46 -147 -101 -293 -39 -106 -37 -177 6 -177 12 0 39 66 65 160 10 36 43 139
73 230 64 188 127 390 156 500 51 193 130 527 131 552 0 9 -14 24 -32 32 -36
19 -33 18 -41 9z"/>
<path d="M8176 4425 c-4 -18 -25 -94 -47 -167 -23 -73 -45 -151 -49 -173 -5
-22 -34 -101 -64 -175 -31 -74 -56 -141 -56 -148 0 -7 -4 -20 -10 -30 -20 -36
-110 -233 -110 -242 0 -5 -29 -67 -65 -138 -36 -71 -65 -134 -65 -141 0 -6
-11 -33 -25 -59 -30 -56 -31 -83 -6 -106 19 -18 21 -15 75 93 31 61 56 115 56
120 0 5 29 69 65 143 36 73 65 138 65 144 0 6 23 60 51 120 66 143 66 144 74
178 3 15 14 47 25 70 40 89 100 256 100 278 0 13 11 59 25 103 30 98 31 108 3
140 -29 33 -35 32 -42 -10z"/>
<path d="M7025 3429 c-30 -61 -55 -116 -55 -122 0 -9 -66 -157 -116 -261 -8
-16 -14 -33 -14 -39 0 -5 -27 -76 -60 -158 -33 -81 -60 -154 -60 -162 0 -8
-18 -69 -40 -136 -79 -245 -123 -535 -95 -638 15 -59 86 -230 116 -281 10 -18
19 -40 19 -48 0 -8 11 -32 25 -54 14 -22 25 -42 25 -45 0 -3 16 -31 35 -61 19
-30 35 -57 35 -61 0 -3 13 -28 30 -54 l30 -49 -53 0 c-28 0 -176 -9 -327 -20
-151 -11 -374 -25 -495 -30 -230 -11 -285 -17 -285 -31 0 -5 16 -34 35 -64
l36 -56 107 6 c59 3 276 17 482 30 206 14 441 28 523 31 106 4 147 9 147 18 0
11 -55 103 -70 116 -10 10 -60 90 -60 97 0 5 -27 53 -60 108 -33 55 -60 104
-60 109 0 5 -24 59 -54 120 -29 61 -59 129 -66 151 -7 22 -22 67 -35 101 l-22
61 24 124 c33 178 60 286 110 438 24 74 43 141 43 149 0 8 27 83 60 166 33 84
60 157 60 163 0 11 22 63 82 193 20 42 38 87 43 100 4 14 14 42 23 63 l16 37
213 0 c117 0 213 3 213 6 0 3 -5 25 -11 50 l-11 44 -214 0 -214 0 -55 -111z"/>
<path d="M12454 2520 c9 -88 38 -195 77 -279 34 -74 59 -121 71 -136 25 -31
75 -102 79 -111 7 -19 208 -242 297 -329 21 -21 22 -27 16 -124 -4 -62 -11
-101 -18 -101 -6 0 -117 -5 -246 -10 -129 -6 -489 -14 -800 -20 -607 -10
-1413 -30 -1418 -35 -5 -5 19 -46 39 -69 11 -11 19 -24 19 -29 0 -13 605 -3
1270 18 261 9 645 19 852 23 207 4 378 9 381 12 2 3 7 78 10 167 l5 162 -96
99 c-122 123 -179 190 -233 272 -24 36 -49 70 -55 77 -7 7 -21 32 -32 55 -11
24 -34 73 -51 109 -35 76 -67 173 -77 238 -5 34 -14 47 -38 62 -54 33 -59 28
-52 -51z"/>
<path d="M5325 2446 c-7 -85 -3 -150 20 -332 15 -115 40 -207 96 -347 22 -53
39 -104 39 -112 0 -8 21 -58 46 -112 l46 -97 -16 -80 c-9 -45 -19 -107 -22
-138 l-7 -57 -76 -5 c-96 -7 -494 -51 -711 -78 -91 -11 -190 -22 -220 -24 -30
-3 -147 -16 -260 -30 -113 -13 -297 -36 -410 -50 -308 -38 -514 -65 -517 -68
-2 -2 7 -31 19 -64 26 -72 13 -69 183 -47 256 32 879 106 1040 124 133 14 348
39 537 62 92 11 226 25 298 30 180 14 176 11 183 101 4 40 19 131 33 201 l27
128 -46 92 c-87 179 -146 330 -158 407 -4 30 -15 87 -23 125 -23 107 -39 282
-33 358 5 52 3 67 -7 67 -8 0 -19 7 -26 15 -22 27 -28 16 -35 -69z"/>
</g>
</svg>
