<?xml version="1.0" encoding="utf-8"?>
<!-- Generator: Adobe Illustrator 19.0.0, SVG Export Plug-In . SVG Version: 6.00 Build 0)  -->
<svg version="1.1" id="words" xmlns="http://www.w3.org/2000/svg" xmlns:xlink="http://www.w3.org/1999/xlink" x="0px" y="0px"
	 viewBox="0 0 444.8 263.9" enable-background="new 0 0 444.8 263.9" xml:space="preserve">
<g id="XMLID_65_">
	<g id="XMLID_38_">
		<path id="XMLID_165_" d="M0,71.5c9.1-9.4,21.1-16.4,34.2-17.6c8.5-0.7,19.8,3.3,26.5,8.1c6.7,4.8,14,14.4,15.6,22.9
			c1.5,7.5-2,14.7-6.4,21c-4.4,6.3-10.1,11.3-17.1,14.9c2.7,12.4,5.5,25.1,8.5,37.2c2.5,10.4,5.5,21.3,11.1,30.8
			c-0.3,0.3-0.5,0.4-0.8,0.7c-5.3,5.1-10.5,11.9-15,20.7c-0.3,0.6-0.4,0.8-0.7,1.4c-0.3-1.7-0.4-2.5-0.7-4.1
			c-3.2-24.4-2.4-50-8.3-74c-0.1-0.4-0.1-0.6-0.2-1c-3.1,2.6-7.1,5-12.1,7.2c-0.2,0.1-0.3,0.1-0.5,0.2c0.3,13.8-0.6,27.7-0.8,41.5
			c4,8,6,12.1,10.4,20.9c-9.7,1.3-19.4,2.6-29.1,3.9c-0.4-1.2-0.7-1.8-1.1-3c10.9-1.5,16.3-2.3,26.9-3.8c-3.6-7.1-5.2-10.4-8.5-17
			c0.1-14.9,0.7-29.7,0.6-44.6c0.6-0.2,0.8-0.3,1.4-0.6c5-1.7,9.2-3.9,12.6-6.7c-0.2-0.8-0.4-1.3-0.4-1.5c-0.2-1.2-0.3-1.7-0.6-2.9
			c0-0.2-0.1-0.6-0.3-1.2c-2.8,1.6-8,3.7-15.8,6.5c-0.3,0.1-0.4,0.2-0.7,0.3c0.4,16.3,0,32.5,0.1,48.8c2.7,5,4,7.5,6.7,12.8
			c-10,1.6-15,2.4-25.3,4c2.7-5.8,4-8.7,6.9-14.7c-0.4-12.3-0.6-24.6-1.4-36.9c-0.2,0.1-0.3,0.1-0.5,0.2c-2.6,1.4-4.9,3-6.9,4.5
			c-0.2,0.2-0.3,0.3-0.5,0.4c-0.3-0.8-0.5-1.2-0.8-2c1.9-1.6,3.4-2.8,4.5-3.4c1.4-0.8,2.1-1.3,3.5-2.1c0.2-0.1,0.3-0.2,0.5-0.3
			c-0.1-2.2-0.2-3.3-0.4-5.5c-2.7,0.5-6.1,2.1-10.1,4.8c-0.3,0.2-0.4,0.3-0.7,0.6c0-1,0.2-3.4,0.7-7.2c0.1-0.3,0.2-2,0.5-5
			c0-0.2,0.1-0.6,0.1-1c2.2-0.2,3.9-0.4,5.1-0.6c1.3-0.2,2.5-0.5,3.6-0.9c-1.4-17.5-2.9-35-5.6-52.3c-2.7-1.8-5.4-3.2-8.1-4.3
			C0.4,71.7,0.3,71.6,0,71.5z M22.3,66.7c3.7,18.9,5.2,37.2,6,56.4c1.4-0.2,2.6-0.6,3.8-1.1c-0.5-17.4-1.5-34.1-4.9-51.2
			c2.5-1.3,5.5-2,9.2-2.3c9.3-0.7,16.6,3.3,21.9,11.7c-4.4-3.8-8.1-6.3-11.2-7.7c-3-1.3-6.4-1.9-10.1-1.6c-2.9,0.2-5.4,0.8-7.5,1.9
			c3.8,16.1,4.2,32.6,4.4,49c0.3-0.1,0.5-0.2,0.8-0.3c9.1-3.8,15.8-8.5,20.3-14.2c4.5-5.7,8.4-12.9,6.6-21.1
			c-1.6-7.3-5.2-13.4-10.5-18c-5.3-4.7-11-6.9-17.1-6.5C29.1,62,25.2,63.7,22.3,66.7z M60.6,124.8c1.7,13.8,4.8,27.9,8.7,41.3
			c2.4,8.6,7.1,17.9,12.6,24.9c-9.1,7.3-16.2,17-21.3,27.6c-0.2,0.3-0.2,0.5-0.4,0.9c-0.6-0.8-0.9-1.2-1.4-2
			c5.5-10,11.1-19.8,20.3-27c-13.2-18.6-16.1-43.3-20.4-65.1c-0.1-0.7-0.2-1-0.3-1.7c11.9-8.4,23.8-23.2,22.1-37.4
			c-0.7-5.9-4.8-13.3-10.8-20.9c6.5,6,12.3,13.5,12.3,22.8C82,102.9,72,116.3,60.6,124.8z"/>
		<path id="XMLID_160_" d="M148,50.2c0.1,0.9,0.1,1.3,0.2,2.1c0.9,9.6,0.8,19.9-0.5,29.4c-0.5-1.5-1-2.5-1.3-3.3
			c-3.3-7.7-7.6-12.9-10.9-15.3c-3.4-2.3-8.4-3.4-14.9-3.2c-3,0.1-6.6,0.4-10.7,0.9c5.4,16.4,7,27.6,4.4,44.7
			c1.5-0.1,2.3-0.1,3.8-0.2c3.1-14.5,1.7-25.1-2.3-39.2c2.9-0.6,5.8-0.9,8.6-1c5.1-0.2,9.1,0.7,12.1,2.4c2.9,1.8,6.1,5.2,8.7,10.2
			c-0.6-0.6-1.1-1.1-1.4-1.4c-3.9-4.1-7-6.6-8.7-7.3c-1.7-0.8-4.6-1.1-8.8-1c-1.3,0-3.5,0.2-6.8,0.6c-0.5,0.1-0.7,0.1-1.2,0.1
			c4,12.9,4.1,23.4,1.4,36.5c4.3-0.2,6.5-0.3,10.7-0.5c4.4-6.8,6.6-10.1,10.1-16.9c-1.3,13.9-5.5,27.1-9.5,40.5
			c-0.9-6.2-1.3-9.3-2.6-15.4c-6.2,0.3-9.3,0.5-15.7,0.9c-4.4,19.6-9.1,38.9-11.3,59c1.3-0.2,2-0.3,3.3-0.4
			c2.1-18.5,6.1-36.3,10.6-54.3c5-0.3,7.4-0.5,12.3-0.7c0.3,0.9,0.5,1.4,0.8,2.4c-4.8,0.3-7.3,0.4-12.2,0.8
			c-4.4,17.2-8.1,34.1-10.1,51.8c7.1-0.9,12.1-2.7,15.2-5.3c3.2-2.6,5.9-7.3,8.8-13.6c1.9-4.1,3-6.1,5-9.9c0.2-0.4,0.6-1.2,1.2-2.2
			c-1.1,7.3-1.4,13.7-0.9,18.5c0.5,4.8,2,10.4,5.2,17.3c-19.4,2.2-38.8,4.7-58.1,7.6c3.3-6.3,5.1-9.4,8.8-15.3
			c2-16,5.1-31.7,8.3-47.5c-3.4,0.9-6.7,2.9-9.9,5.9c-0.2-0.8-0.3-1.2-0.5-2c2.9-3.1,6.6-5.3,10.9-6.5c0.4-1.8,0.5-2.7,0.9-4.5
			c-0.7-0.1-1.1-0.1-1.4-0.1c-4.1,0.3-8.3,3.1-12.4,8.3c3.5-10.7,8.6-16.2,15.3-16.6c2.7-15.6,1-26.6-3.5-41.6
			c-5.5-4.7-8.5-7.1-14.5-11.9C105.5,51.9,126.7,51.1,148,50.2z M146.3,177.4c-0.9,4.5-1.2,6.8-1.6,11.6
			c-19.1,2.2-38.1,4.7-57.1,7.3c-0.4-1.4-0.7-2.1-1.1-3.4c19-2.6,38-5.2,57-7.4c0.3-3.3,0.6-4.9,1.2-8c-4.1-10.2-7.5-19.8-6.3-31.1
			c0.5,0.5,0.8,0.7,1.3,1.2c-0.6,9,1.7,19.9,5.7,27.9C145.8,176.2,146,176.6,146.3,177.4z M143.9,91c-2.5,14.2-6.4,27.6-10.7,41.4
			c-0.4-0.5-0.6-0.7-0.9-1.2c4.2-13.8,8-27.2,10.3-41.5C143.1,90.3,143.4,90.6,143.9,91z M154.5,57.8c0,0.4,0,0.6,0,1
			c0.2,11.8-2.1,20.5-3.4,27.5c-0.4-0.8-0.6-1.2-1-2c2-9.2,3-19.4,2.6-28.8C153.4,56.5,153.8,56.9,154.5,57.8z"/>
		<path id="XMLID_155_" d="M160.3,49.8c19.4-0.9,38.8-2.2,58.2-3.6c0.9,7.1,0.8,12.1,0.8,15.8c0,3.6,0.1,9.3-1.1,16.5
			c-0.1,0.8-0.2,1.2-0.4,2.1c-2.5-9.3-6.7-15.8-10-18.7c-3.2-2.9-7.8-4.3-13.5-4c-1.2,0.1-1.9,0.2-3.1,0.3c-2.2,0-3.2,0.1-5.4,0.1
			c-0.8,0-1.3,0-2.1,0c4.7,15.5,6.8,30.5,1.2,46.2c1.3,0,2,0,3.3,0c4.8-13.9,3.8-26.3,0.9-40.4c0.6-0.1,0.9-0.1,1.6-0.2
			c2.2-0.3,4.6-0.5,7.2-0.6c7.5-0.3,13.5,3.6,16.2,11c-2.1-3.3-4.5-5.5-6.9-6.7c-2.3-1.1-5.7-1.6-10.1-1.5c-1.6,0-3.5,0.3-5.8,0.7
			c3.1,12.5,2.5,25.4-1.7,37.5c3.3,0,4.9,0.1,8.1,0.1c5.4-6.1,8.2-9.1,12.2-15.7c-1.7,13.4-7.3,26-12.5,38.4
			c-1.1-6.1-1.5-9.1-2.8-15.1c-4.9-0.1-7.3-0.1-12.2-0.1c-6.2,16.3-12.2,31.4-15,48.6c2.2,5.6,3.4,8.4,6.6,14.4
			c-10.7,0.5-16,0.8-26.9,1.6c3.4-6.6,5.4-9.7,9.5-15.5c2.6-14.9,7-28.2,12.4-42.4c-2.8,0-5.9,1.8-9.3,5.4c-0.1-0.8-0.2-1.2-0.3-1.9
			c3.6-4,7.1-5.9,10.6-5.9c0.6-1.7,0.9-2.6,1.5-4.3c-0.7-0.1-1.3-0.2-1.6-0.2c-3.4,0-7.1,2.3-11.3,7c0.1-0.6,0.1-0.9,0.1-1.5
			c4.5-8,9.4-12.3,15.3-13c4.5-14.2,3.5-26.5,0.3-40.7C169.6,58.2,166.9,55.5,160.3,49.8z M195,119.7c-4.3-0.1-6.5-0.1-10.8-0.1
			c-5.5,14-9.9,26.8-12.1,41.7c2.9,9.4,4.9,14.3,11.1,24.9c-10.7,0.7-21.5,1.5-32.2,2.3c-0.8-1.4-1.2-2-1.9-3.4
			c10.1-0.8,20.2-1.4,30.4-2c-4.7-8.6-6.3-12.7-8.8-20.4c0.9-16,7.3-30.9,13.2-45.5c4.3,0,6.4,0.1,10.7,0.1
			C194.6,118.3,194.8,118.8,195,119.7z M213.6,92.2c-2.9,13.7-8.7,26.5-14,39.4c-0.3-0.6-0.5-0.8-0.8-1.4
			c5.3-12.9,11.2-25.7,13.6-39.5C212.8,91.4,213.1,91.7,213.6,92.2z M225.8,53.5c-0.9,11.5-2.3,22.6-4.9,33.9
			c-0.4-0.6-0.6-0.8-1-1.4c2.3-11.4,3.3-22.9,4.2-34.5C224.8,52.3,225.1,52.7,225.8,53.5z"/>
		<path id="XMLID_152_" d="M222.2,45.9c9.9-0.7,14.8-1.1,24.8-1.9c-0.1,7.5-0.5,11-2,17.7c4.8,39-19.2,67-20.1,104.7
			c0.2,0,0.2,0,0.4,0c0.7,0.1,1.1,0.2,1.8,0.3c0.2,0,0.3,0,0.4,0c0.7-37.3,24.5-65.5,20.4-103.9c1.2-5.3,1.6-8,1.9-13.8
			c0.7,1.1,1,1.7,1.6,2.8c-0.5,5.2-0.9,7.7-2,12.4c3.3,37.7-20.1,65.9-20.6,102.5c1.5,0.3,3,0.4,4.3,0.4c5.3-0.1,9.1-2.6,11.9-7.2
			c2.8-4.6,5.6-12,9.7-21.8c-0.8,12.9-0.5,24.6,7.1,35.7c-17.6,0.4-35.2,0.9-52.8,1.4c2-5.2,3.2-7.6,6-12.4
			c2.9-37,25.8-63.2,19.8-101.8C230.4,55.2,228,52.2,222.2,45.9z M266.7,172.8c-0.2,3.7-0.2,5.6,0.2,9.5
			c-17.8,0.7-35.5,1.4-53.3,2.2c-0.9-1.3-1.3-1.9-2.1-3.1c18-0.8,35.9-1.4,53.9-2c-0.2-2.7-0.2-4-0.1-6.6
			c-5.2-7.8-8.8-19.5-7.9-28.9c0-0.4,0-0.6,0.1-1c0.5,0.4,0.8,0.7,1.3,1.1c0,0.6,0,0.9,0,1.6c0,9.1,2.6,17.8,7.3,26.2
			C266.3,172.2,266.5,172.4,266.7,172.8z"/>
		<path id="XMLID_147_" d="M339.2,35c-0.1,1.1-0.2,1.7-0.3,2.8c-1.6,12.8-3.7,25.5-6.8,38c-0.2-1.8-0.3-3.1-0.4-4
			c-1.3-9.4-3.9-15.9-6.4-18.7c-2.5-2.8-6.7-3.9-12.3-3.2c-2.6,0.3-5.6,0.9-9.2,1.8c1.9,18.1,1.2,35.1-4.5,52.5
			c1.3-0.1,2-0.1,3.3-0.2c4.2-15.7,5.9-29.5,5.4-45.8c2.5-0.9,5-1.5,7.3-1.8c4.3-0.5,7.7,0.2,9.9,2.3c2.2,2,4.2,6.3,5.4,12.3
			c-0.4-0.7-0.7-1.3-0.9-1.7c-2.5-4.8-4.7-7.8-6-8.7c-1.3-0.9-3.7-1.1-7.3-0.6c-1.1,0.1-3,0.5-5.8,1.2c-0.4,0.1-0.6,0.2-1.1,0.3
			c0,14.7-1.4,28.3-5.7,42.5c3.8-0.2,5.6-0.3,9.5-0.6c4.6-7.2,6.9-11.2,10.8-19.5c-2.9,14.8-6.8,29.1-11,43.5
			c-1.1-6.1-1.5-9.2-2.3-15.5c-5.8,0.3-8.6,0.5-14.3,0.7c-6.1,17.7-11.5,33.4-11.3,52.2c1.4,0,2.2,0,3.6,0
			c-2.6-15.9,4.4-33.2,9.5-47.8c4.6-0.2,6.9-0.3,11.5-0.5c0.2,1,0.4,1.4,0.6,2.4c-4.7,0.2-7,0.4-11.6,0.5
			c-4.8,13.8-11.2,30.5-8.6,45.4c7.7-0.1,13.2-1.1,16.3-3.1c3.1-1.9,5.3-5.6,7.8-11c1.7-3.5,2.6-5.2,4.5-8.7
			c0.2-0.4,0.6-1.1,1.1-2.1c-0.4,6.9,0.3,12.4,1.5,16.6c1.3,4.2,5.4,8.9,10.6,14.6c-21.7,0.7-43.3,0.9-65,1.4
			c2.3-4.8,3.7-7.1,6.9-11.6c1.2-14.8,4.9-27.2,10-41.1c-3.1,0.7-6.2,2.3-9.5,4.8c0-0.8,0-1.1,0-1.9c3.1-2.7,6.5-4.5,10.3-5.3
			c0.7-1.8,1-2.6,1.6-4.4c-0.5-0.1-0.9-0.2-1.1-0.2c-3.4,0.1-7.3,2.5-11.9,7.1c5.3-9.8,10.5-15.1,15.9-15.3
			c5.4-15.7,6.1-31.3,4.8-47.7c-4-6-6.3-9.1-11.7-15.5C301.3,39.8,320.2,37.4,339.2,35z M339.3,171.6c-0.3,3.6-0.4,5.4-0.3,9.1
			c-21.5,0.8-43,1.3-64.5,1.8c-0.7-1.1-1.1-1.7-1.8-2.8c21.5-0.5,43-1,64.5-1.7c0-2.6,0-3.8,0.1-6.3c-6.6-7.7-14.2-15.9-14.1-26.9
			c0.7,0.4,1,0.6,1.7,1.1c1,8,5.2,16,12.9,24.2C338.4,170.6,338.7,171,339.3,171.6z M326.9,87.4c-3.2,14.9-7.2,29.4-11.2,44.1
			c-0.4-0.5-0.7-0.7-1.1-1.1c4.1-14.7,8.1-29.3,11.2-44.3C326.3,86.6,326.5,86.9,326.9,87.4z M343.3,44.4c-0.1,0.5-0.1,0.8-0.2,1.3
			c-2.1,12-5.3,23.8-8.9,35.4c-0.2-0.9-0.3-1.4-0.6-2.3c3.4-12.4,6.2-24.5,8.5-37.1C342.7,42.8,342.9,43.3,343.3,44.4z"/>
		<path id="XMLID_144_" d="M423.2,24.5c-4.3,7.3-6.5,11.1-11.2,18.8c-5.6,17.3-12.2,33.9-19.9,50.4c6.5,20.5,14.7,39.8,24.7,58.9
			c5.7,4.9,9.1,7.4,15.4,12.4c-12.7,1.3-25.4,2.4-38.1,3.3c2.4-5.3,3.2-7.8,6.6-13.3c-5.9-11.7-11-23.8-15.1-36.2
			c-6.9,12.8-13.9,25.4-20.7,38.2c4.3,8.3,9.3,12.1,16.4,20.5c-11.8,0.7-23.7,1.3-35.5,1.8c-0.8-1.1-1.1-1.6-1.9-2.7
			c11-0.5,22-1,33-1.6c-6.1-7.3-10.4-10.6-14.1-17.8c7.2-13.7,14.8-27.2,22.1-40.8c-0.6-1.7-0.9-2.5-1.4-4.2
			c-7.8,14.6-16.5,28.8-24.3,43.3c3.1,5.8,6.2,8.5,11.1,14.3c-9.9,0.6-19.8,1.1-29.7,1.4c4.2-6.1,5.6-9,11.8-15.3
			c9.3-17.3,20-33.7,29.1-51.1c-4.8-18.8-8-37.9-13.4-56.6c-4.5-6.4-6.9-9.7-12.4-16.7c9.8-1.2,19.5-2.3,29.3-3.3
			c-2.1,6.4-3.3,9.6-5.8,15.9c4.2,13.8,7.8,27.7,11,41.8c1-2.2,1.6-3.4,2.6-5.6c-2.9-11.5-5.8-22.9-9.5-34.2
			c2.2-5.7,3.2-8.6,5.1-14.5c0.5,0.8,0.7,1.3,1.2,2.1c-1.7,4.9-2.6,7.3-4.5,12.1c3.2,10.6,6.2,21.2,8.8,32
			c4.9-11.4,9.2-23.1,12.7-35c-3.1-6.1-4.7-9.3-8.3-16C408.2,25.8,413.2,25.3,423.2,24.5z M426,33.3c-4,5.9-6.1,8.9-10.3,15
			c-4.8,15.4-10.9,30.5-17.7,45.1c6.1,19.5,14.9,37.9,24.5,56c7.3,7.9,15,15.5,22.4,23.3c-15.2,1.4-30.4,2.7-45.7,3.8
			c-0.8-1.1-1.2-1.6-2-2.7c14.1-1,28.2-2.2,42.3-3.6c-7.5-7.9-11.8-11.6-18.7-19.2c-9.8-18.6-18.1-37.3-24.8-57.2
			c7.1-15.4,13.6-31,18.6-47.3c4.3-6.3,6.3-9.4,10.4-15.4C425.4,31.9,425.6,32.4,426,33.3z"/>
	</g>
</g>
</svg>
